<?xml version="1.0" standalone="no"?>
<!DOCTYPE svg PUBLIC "-//W3C//DTD SVG 20010904//EN"
 "http://www.w3.org/TR/2001/REC-SVG-20010904/DTD/svg10.dtd">
<svg version="1.0" xmlns="http://www.w3.org/2000/svg"
 width="185.000000pt" height="218.000000pt" viewBox="0 0 185.000000 218.000000"
 preserveAspectRatio="xMidYMid meet">

<g transform="translate(0.000000,218.000000) scale(0.100000,-0.100000)"
fill="#000000" stroke="none">
<path d="M825 2113 c-54 -8 -169 -45 -227 -73 -164 -81 -287 -208 -363 -373
-54 -116 -68 -186 -68 -327 0 -149 15 -216 78 -345 79 -160 191 -272 350 -350
113 -56 185 -75 307 -82 368 -21 691 217 796 586 22 77 22 305 0 382 -35 122
-105 252 -184 339 -79 87 -216 174 -336 214 -94 31 -246 44 -353 29z m289
-377 c45 -42 47 -75 10 -195 -29 -95 -117 -313 -174 -430 l-37 -76 101 -2
c122 -3 140 -7 166 -35 21 -22 43 -85 35 -98 -3 -4 -33 -2 -67 6 -35 7 -115
13 -179 14 -103 0 -118 -2 -134 -20 -27 -29 -64 -25 -102 12 -45 44 -43 63 10
80 48 16 68 49 132 214 68 174 116 327 165 522 13 51 27 53 74 8z"/>
<path d="M614 430 c-26 -10 -57 -52 -79 -108 -19 -46 -26 -50 -49 -26 -18 17
-21 51 -7 73 11 17 3 41 -13 41 -12 0 -28 -25 -40 -63 -9 -26 20 -82 49 -95
32 -15 24 -46 -9 -35 -30 10 -64 7 -81 -7 -16 -13 -20 -57 -7 -77 12 -19 64
-25 92 -10 23 12 28 10 76 -30 61 -51 99 -61 144 -38 30 15 31 18 17 33 -14
13 -21 14 -43 3 -30 -13 -49 -4 -110 51 -29 26 -31 32 -21 58 8 21 19 30 46
35 82 15 141 72 141 134 0 60 -45 86 -106 61z m54 -66 c4 -27 -31 -70 -64 -78
-36 -9 -38 -4 -19 36 35 67 76 89 83 42z m-224 -180 c22 -8 20 -21 -4 -29 -25
-8 -41 1 -33 20 6 16 13 18 37 9z"/>
<path d="M750 380 c-29 -55 -80 -204 -75 -220 7 -24 29 -32 58 -21 12 5 36 6
53 4 30 -5 32 -2 54 54 21 54 51 93 71 93 14 0 11 -22 -15 -88 l-25 -62 28 0
c24 0 29 6 46 56 19 56 61 102 77 86 6 -6 3 -25 -6 -47 -21 -50 -20 -82 3 -95
31 -16 91 15 91 48 0 12 -5 10 -23 -6 -13 -12 -26 -22 -30 -22 -13 0 -7 34 15
87 18 43 19 55 8 68 -16 19 -40 19 -68 -1 -22 -15 -24 -15 -36 2 -12 16 -18
17 -55 5 -23 -6 -51 -9 -62 -6 -15 5 -22 -1 -35 -30 -8 -20 -12 -45 -9 -55 4
-11 -4 -28 -21 -47 -16 -18 -24 -22 -20 -10 5 16 4 16 -18 1 -15 -9 -26 -11
-30 -5 -4 5 13 60 38 120 l44 111 -23 0 c-14 0 -29 -9 -35 -20z"/>
<path d="M1474 355 c-9 -25 -18 -45 -20 -45 -2 0 -14 5 -28 11 -20 10 -30 9
-50 -5 -38 -24 -61 -63 -47 -79 8 -10 7 -19 -4 -33 -34 -45 -1 -85 49 -59 24
13 30 13 50 0 31 -21 66 -7 101 40 37 48 25 57 -15 11 -62 -71 -65 -42 -10 96
22 55 40 102 40 104 0 2 -11 4 -24 4 -20 0 -28 -9 -42 -45z m-50 -123 c-24
-59 -64 -78 -64 -31 0 26 26 76 42 82 28 10 38 -13 22 -51z"/>
<path d="M1191 317 c-13 -6 -33 -24 -44 -39 -16 -22 -18 -30 -8 -42 10 -12 9
-19 -3 -38 -25 -38 -2 -61 58 -61 53 0 93 24 108 63 l9 25 -28 -27 c-34 -33
-78 -45 -98 -28 -28 23 -18 40 23 40 27 0 45 7 60 23 56 59 -2 123 -77 84z
m49 -41 c0 -19 -27 -46 -46 -46 -20 0 -18 12 6 38 24 25 40 28 40 8z"/>
</g>
</svg>
